<?xml version="1.0" encoding="utf-8"?>
<!-- Generator: Adobe Illustrator 16.0.0, SVG Export Plug-In . SVG Version: 6.00 Build 0)  -->
<!DOCTYPE svg PUBLIC "-//W3C//DTD SVG 1.1//EN" "http://www.w3.org/Graphics/SVG/1.1/DTD/svg11.dtd">
<svg version="1.1" id="Layer_1" xmlns="http://www.w3.org/2000/svg" xmlns:xlink="http://www.w3.org/1999/xlink" x="0px" y="0px"
	 width="215.549px" height="214.079px" viewBox="0 0 215.549 214.079" enable-background="new 0 0 215.549 214.079"
	 xml:space="preserve">
<g id="xKrHxR.tif">
	<g>
		<path fill="#FFFFFF" d="M64.613,18.942c3.669,12.428,6.849,23.483,10.292,34.459c0.458,1.457,2.253,2.495,3.434,3.727
			c1.039-1.067,2.959-2.118,2.976-3.202c0.214-12.319,0.135-24.651,0.135-38.083C75.166,17,70.242,17.903,64.613,18.942z
			 M15.62,81.723c13.556,0,25.42,0.107,37.277-0.136c1.366-0.028,2.692-1.982,4.031-3.038c-1.231-1.18-2.271-2.976-3.732-3.433
			c-10.978-3.444-22.037-6.623-34.471-10.293C17.692,70.441,16.788,75.365,15.62,81.723z M197.258,131.918
			c-13.099,0-24.96-0.102-36.818,0.135c-1.395,0.029-2.75,1.915-4.121,2.943c0.926,1.156,1.637,3.009,2.807,3.364
			c11.467,3.512,23.014,6.775,35.841,10.485C195.792,142.759,196.463,137.795,197.258,131.918z M148.73,195.025
			c-3.822-12.964-6.996-24.041-10.45-35.028c-0.441-1.396-2.389-2.31-3.637-3.45c-0.977,1.422-2.772,2.824-2.801,4.268
			c-0.227,11.841-0.131,23.692-0.131,36.758C137.68,196.68,142.643,195.935,148.73,195.025z"/>
		<path fill-rule="evenodd" clip-rule="evenodd" fill="#FFFFFF" d="M46.539,213.637c-12.643-3.512-24.251-8.51-33.295-18.774
			c-17.233-19.552-17.922-50.754-0.452-70.015c9.508-10.483,19.852-20.218,29.924-30.178c1.283-1.265,3.253-2.784,4.8-2.676
			c10.367,0.728,20.705,1.863,33.313,3.083c-3.18,4.167-4.664,6.623-6.63,8.616c-12.302,12.45-24.774,24.741-37.067,37.203
			c-7.685,7.792-10.157,17.119-6.352,27.458c3.586,9.745,11.09,14.957,21.388,15.889c8.995,0.812,15.968-3.333,22.077-9.475
			c11.552-11.637,23.139-23.229,34.765-34.798c2.095-2.084,4.397-3.958,6.605-5.935c0.887,0.118,1.768,0.231,2.654,0.345
			c1.111,10.164,3.021,20.338,2.919,30.483c-0.04,3.722-4.552,7.662-7.573,11.011c-4.64,5.155-10.048,9.632-14.6,14.855
			c-10.118,11.619-22.444,19.4-37.457,22.907C56.549,213.637,51.546,213.637,46.539,213.637z"/>
		<path fill-rule="evenodd" clip-rule="evenodd" fill="#FFFFFF" d="M213.436,61.763c-5.224,26.701-27.666,40.41-44.238,58.535
			c-0.684,0.745-1.926,1.502-2.841,1.429c-10.603-0.887-21.195-1.932-34.126-3.156c3.405-4.33,4.97-6.765,6.951-8.774
			c12.501-12.653,25.323-24.991,37.576-37.875c8.739-9.198,9.778-20.552,3.856-30.529c-5.709-9.604-16.939-14.652-27.887-11.056
			c-5.268,1.728-10.231,5.512-14.343,9.407c-11.89,11.275-23.263,23.104-34.888,34.663c-1.879,1.868-4.015,3.472-8.345,7.176
			c-1.344-12.602-3.331-22.828-3.066-32.991c0.107-3.941,4.991-8.046,8.261-11.553c6.25-6.702,12.931-13.003,19.377-19.53
			C135.066,1.98,153.49-3.778,174.381,2.495c20.728,6.223,33.701,20.467,37.777,42.167c0.143,0.745,0.837,1.389,1.277,2.078
			C213.436,51.747,213.436,56.755,213.436,61.763z"/>
		<path fill-rule="evenodd" clip-rule="evenodd" fill="#FFFFFF" d="M64.613,18.942c5.629-1.039,10.553-1.942,16.836-3.1
			c0,13.433,0.079,25.764-0.135,38.083c-0.017,1.084-1.937,2.135-2.976,3.202c-1.181-1.231-2.976-2.27-3.434-3.727
			C71.461,42.425,68.282,31.37,64.613,18.942z"/>
		<path fill-rule="evenodd" clip-rule="evenodd" fill="#FFFFFF" d="M15.62,81.723c1.168-6.358,2.073-11.282,3.105-16.9
			c12.435,3.67,23.494,6.849,34.471,10.293c1.462,0.458,2.501,2.253,3.732,3.433c-1.339,1.056-2.665,3.009-4.031,3.038
			C41.04,81.83,29.176,81.723,15.62,81.723z"/>
		<path fill-rule="evenodd" clip-rule="evenodd" fill="#FFFFFF" d="M197.258,131.918c-0.795,5.877-1.466,10.841-2.292,16.928
			c-12.827-3.71-24.374-6.974-35.841-10.485c-1.17-0.355-1.881-2.208-2.807-3.364c1.371-1.028,2.727-2.914,4.121-2.943
			C172.298,131.816,184.16,131.918,197.258,131.918z"/>
		<path fill-rule="evenodd" clip-rule="evenodd" fill="#FFFFFF" d="M148.73,195.025c-6.087,0.909-11.05,1.654-17.019,2.547
			c0-13.065-0.096-24.917,0.131-36.758c0.028-1.443,1.824-2.846,2.801-4.268c1.248,1.141,3.195,2.055,3.637,3.45
			C141.734,170.984,144.908,182.062,148.73,195.025z"/>
	</g>
</g>
</svg>
