<?xml version="1.0" encoding="utf-8"?>
<!-- Generator: Adobe Illustrator 16.0.0, SVG Export Plug-In . SVG Version: 6.00 Build 0)  -->
<!DOCTYPE svg PUBLIC "-//W3C//DTD SVG 1.1//EN" "http://www.w3.org/Graphics/SVG/1.1/DTD/svg11.dtd">
<svg version="1.1" id="Layer_1" xmlns="http://www.w3.org/2000/svg" xmlns:xlink="http://www.w3.org/1999/xlink" x="0px" y="0px"
	 width="360px" height="210.301px" viewBox="0 0 360 210.301" enable-background="new 0 0 360 210.301" xml:space="preserve">
<g id="BdVwGb.tif_1_">
	<g>
		<path fill="#FFFFFF" stroke="#FFFFFF" stroke-miterlimit="10" d="M169.592,0c7.851,0,15.702,0,23.557,0
			c5.139,0.663,10.293,1.21,15.408,1.972c47.342,7.08,87.922,27.903,121.816,61.387c10.979,10.857,20.251,23.441,30.302,35.235
			c0,0.297,0,0.586,0,0.868c-0.938,1.241-1.965,2.413-2.794,3.708c-23.907,37.55-54.657,67.775-94.887,87.486
			c-35.951,17.609-73.759,24.233-113.372,16.369c-46.449-9.213-84.099-34.124-116.277-67.737
			c-11.888-12.425-22.068-26.494-33.023-39.826c0-0.282,0-0.571,0-0.868c0.521-0.45,1.111-0.838,1.561-1.364
			c9.833-11.236,18.938-23.236,29.597-33.613c32.011-31.229,69.804-52.037,114.106-60.184C153.528,1.98,161.589,1.135,169.592,0z
			 M39.125,99.736c18.756,22.986,40.012,50.142,65.24,64.943c35.589,20.892,73.438,28.178,113.793,17.603
			c43.282-11.352,76.188-37.748,103.239-72.404c1.758-2.246,0.411-18.926-0.854-20.335c-18.768-21.088-40.678-38.052-66.358-49.929
			c-30.098-13.909-61.699-19.178-94.59-14.998c-30.552,3.875-58.014,15.813-83.009,33.628
			C62.947,67.988,50.507,86.832,39.125,99.736z"/>
		<path fill-rule="evenodd" clip-rule="evenodd" fill="#FFFFFF" stroke="#FFFFFF" stroke-miterlimit="10" d="M243.115,105.233
			c-0.022,33.895-26.913,60.564-61.045,60.526c-33.19-0.03-60.29-27.195-60.382-60.496c-0.088-33.613,27.185-60.77,61.018-60.748
			C216.331,44.54,243.123,71.468,243.115,105.233z M166.981,67.98c-11.764,0-21.745,9.852-21.821,21.569
			c-0.08,11.588,9.845,21.629,21.615,21.874c11.663,0.236,22.14-10.171,22.018-21.896C188.688,77.794,178.754,67.988,166.981,67.98z
			"/>
	</g>
</g>
</svg>
