<?xml version="1.0" encoding="utf-8"?>
<!-- Generator: Adobe Illustrator 16.0.0, SVG Export Plug-In . SVG Version: 6.00 Build 0)  -->
<!DOCTYPE svg PUBLIC "-//W3C//DTD SVG 1.1//EN" "http://www.w3.org/Graphics/SVG/1.1/DTD/svg11.dtd">
<svg version="1.1" id="Layer_1" xmlns="http://www.w3.org/2000/svg" xmlns:xlink="http://www.w3.org/1999/xlink" x="0px" y="0px"
	 width="215.549px" height="214.079px" viewBox="0 0 215.549 214.079" enable-background="new 0 0 215.549 214.079"
	 xml:space="preserve">
<g id="_x34_eIckM.tif">
	<g>
		<path fill-rule="evenodd" clip-rule="evenodd" fill="#FFFFFF" d="M63.292,162.623c5.809-7.826,11.363-15.727,17.386-23.274
			c2.74-3.442,3.55-5.993,1.486-10.478c-5.75-12.604-1.145-26.585,10.351-34.284c0.406-0.247,0.791-0.519,1.328-0.88
			c-1.119-3.169-2.245-6.339-3.372-9.502C86.808,74,83.119,63.795,79.5,53.578c-0.416-1.177-1.051-1.55-2.246-1.848
			c-3.492-0.829-6.94-1.942-10.862-3.068c-1.854,2.239-4.125,4.966-6.396,7.711c-4.941,5.992-9.832,12.034-14.817,17.974
			c-0.892,1.076-0.872,1.873-0.348,3.069c2.941,6.592,2.302,12.969-1.961,18.732c-4.512,6.112-10.787,8.624-18.303,7.346
			c-6.693-1.132-11.507-4.998-14.058-11.242C7.82,85.647,8.56,79.226,13.077,73.577c5.916-7.422,14.956-9.308,23.422-5.1
			c0.36,0.184,0.715,0.354,1.208,0.576c2.683-3.265,5.321-6.504,7.99-9.718c4.506-5.485,8.998-10.964,13.56-16.399
			c0.778-0.917,0.841-1.562,0.227-2.625c-4.631-8.174-4.631-16.418,0.374-24.352c4.902-7.77,12.268-11.382,21.44-10.92
			c10.712,0.539,19.284,8.453,21.556,19.543c1.941,9.548-3.507,20.291-12.572,24.807c-0.651,0.329-1.303,0.658-2.1,1.044
			c1.751,4.921,3.453,9.743,5.181,14.544c2.816,7.871,5.675,15.722,8.453,23.611c0.462,1.303,0.961,1.727,2.429,1.55
			c8.667-1.069,16.272,1.398,22.967,7.376c10.635-10.799,21.226-21.548,31.794-32.278c-6.254-14.26-4.026-25.458,6.415-32.595
			c9.326-6.364,21.979-5.175,29.912,2.834c7.921,7.991,9.16,20.479,2.81,29.742c-3.657,5.384-8.744,8.774-15.159,9.933
			c-6.313,1.139-12.196-0.139-17.195-3.429c-4.567,4.359-9.019,8.497-13.31,12.779c-6.287,6.238-12.462,12.578-18.7,18.867
			c-0.678,0.676-1.233,1.233-0.651,2.378c4.385,8.825,3.936,17.544-0.665,26.147c-0.095,0.178-0.121,0.38-0.265,0.798
			c13.955,11.298,27.946,22.637,41.903,33.943c1.607-1.196,3.038-2.438,4.632-3.404c7.541-4.555,17.613-3.007,23.244,3.517
			c6.251,7.225,6.554,17.215,0.745,24.313c-4.807,5.87-11.12,8.137-18.397,6.644c-7.769-1.582-12.666-6.63-14.525-14.356
			c-0.493-2.1-0.102-4.41-0.278-6.605c-0.089-0.884-0.354-2.047-0.975-2.548c-13.485-11.027-27.062-21.948-40.549-32.976
			c-1.52-1.246-2.508-1.259-4.107-0.121c-9.516,6.759-21.093,6.949-30.968,0.659c-0.678-0.424-1.343-0.854-2.196-1.41
			c-2.803,3.782-5.574,7.51-8.326,11.241c-4.346,5.853-8.674,11.725-13.065,17.558c-0.759,1.018-1.125,1.93-0.473,3.119
			c0.227,0.404,0.45,0.879,0.436,1.335c-0.031,2.94,1.646,3.743,4.315,4.17c6.712,1.068,13.387,2.446,20.062,3.794
			c1.151,0.223,1.663-0.057,2.201-1.069c6.821-12.748,23.072-14.24,31.849-2.769c4.284,5.572,4.922,11.95,2.195,18.378
			c-2.707,6.339-7.662,10.078-14.546,11.224c-9.591,1.582-19.13-5.105-20.883-14.576c-0.234-1.203-0.798-1.748-2.057-1.975
			c-7.288-1.329-14.577-2.747-21.845-4.169c-1.255-0.254-1.772,0.183-2.24,1.315c-4.169,10.13-13.116,15.614-24.036,14.837
			c-9.458-0.671-17.872-7.923-20.422-17.613c-3.568-13.521,5.802-27.296,19.676-29.04c6.916-0.88,12.932,1,18.233,5.422
			c0.354,0.31,0.729,0.62,1.095,0.918C62.943,162.491,63.008,162.503,63.292,162.623z M89.211,116.934
			c-0.79,9.274,6.163,19.435,18.095,19.966c9.225,0.404,17.873-6.022,19.259-16.045c1.651-11.982-7.042-20.271-15.938-21.421
			C98.734,97.851,89.567,106.937,89.211,116.934z M46.406,193.504c7.959,0.069,14.299-6.106,14.457-14.09
			c0.157-7.585-6.358-14.146-14.152-14.261c-7.555-0.093-14.097,6.326-14.21,13.952C32.405,186.963,38.656,193.428,46.406,193.504z
			 M93.798,28.53c-0.037-7.934-6.534-14.399-14.304-14.235c-7.668,0.146-14.008,6.542-14.039,14.166
			c-0.038,7.781,6.517,14.26,14.373,14.19C87.51,42.594,93.837,36.198,93.798,28.53z M192.814,52.217
			c0.114-7.782-6.036-14.07-13.981-14.324c-7.668-0.227-14.186,6.149-14.272,13.995c-0.103,7.776,6.047,14.171,13.754,14.292
			C186.297,66.332,192.687,60.163,192.814,52.217z M18.367,85.135c0.031,5.137,4.308,9.389,9.445,9.408
			c5.074,0.006,9.477-4.353,9.477-9.433c-0.012-5.232-4.434-9.623-9.597-9.49C22.485,75.733,18.316,79.991,18.367,85.135z
			 M122.142,188.823c0.032-5.039-4.39-9.53-9.376-9.523c-5.214,0.013-9.61,4.403-9.585,9.561c0.045,5.06,4.371,9.382,9.497,9.433
			C117.668,198.338,122.097,193.901,122.142,188.823z M188.056,169.923c-5.074,0.026-9.527,4.48-9.439,9.46
			c0.076,5.194,4.289,9.389,9.439,9.44c5.162,0.057,9.553-4.367,9.516-9.567C197.534,174.158,193.194,169.897,188.056,169.923z"/>
	</g>
</g>
</svg>
